<svg xmlns="http://www.w3.org/2000/svg" width="512" height="512" viewBox="0 0 512 512" version="1.1">
	<path d="M 285.477 113.394 C 283.625 116.222, 284.353 120.742, 287.025 123 C 288.421 124.179, 288.886 126.455, 289.203 133.648 L 289.606 142.795 277.553 146.459 C 262.115 151.152, 260.931 151.656, 261.552 153.276 C 261.843 154.032, 260.366 155.978, 258.154 157.756 C 256.002 159.485, 253.928 162.160, 253.545 163.700 C 253.161 165.240, 251.088 168.835, 248.938 171.688 C 246.788 174.541, 242.594 181.335, 239.617 186.785 C 232.426 199.954, 230.025 209.570, 229.928 225.593 C 229.841 239.960, 231.046 247.398, 235.420 259.500 C 237.799 266.082, 238.726 270.448, 238.870 275.754 C 239.101 284.285, 238.215 286.343, 233.217 288.880 C 230.097 290.463, 186.201 302, 183.297 302 C 182.361 302, 177.991 280.685, 177.997 276.150 C 177.999 274.826, 176.580 272.386, 174.750 270.563 C 171.973 267.797, 167.275 265.929, 142.500 257.740 C 107.307 246.107, 55.811 229.994, 53.894 230.015 C 52.817 230.027, 52.786 230.212, 53.755 230.828 C 54.622 231.378, 53.925 232.142, 51.505 233.296 C 47.545 235.184, 47.369 235.985, 49.565 242.124 C 50.425 244.531, 51.993 250.550, 53.049 255.500 C 54.979 264.549, 55.490 269.653, 54 265 C 53.295 262.798, 53.178 262.976, 53.016 266.500 C 52.836 270.432, 52.809 270.399, 51.375 264.500 C 50.573 261.200, 49.715 256.925, 49.469 255 C 49.223 253.075, 48.269 246.100, 47.349 239.500 C 46.429 232.900, 45.671 226.048, 45.663 224.273 C 45.645 220.442, 48.427 217, 51.540 217 C 54.833 217, 56.677 213.385, 59.743 200.918 C 62.136 191.182, 62.800 189.646, 64.966 188.823 C 67.411 187.893, 67.388 187.853, 63.357 186.049 C 53.983 181.852, 54.087 181.813, 46.009 192.420 C 42.020 197.657, 37.913 202.210, 36.881 202.538 C 33.147 203.723, 33.183 211.581, 36.945 216.759 C 38.738 219.228, 43.352 238.748, 46.809 258.500 C 47.387 261.800, 49.238 269.450, 50.922 275.500 C 52.607 281.550, 53.988 286.760, 53.992 287.077 C 53.997 287.394, 51.783 287.199, 49.073 286.644 C 43.753 285.554, 40.996 286.657, 41.004 289.872 C 41.010 292.482, 44.797 297.964, 47.248 298.911 C 54.781 301.822, 54.640 302.053, 45.623 301.562 C 35.596 301.017, 31.192 302.250, 28.501 306.359 C 25.776 310.518, 26.889 312.981, 33 316.308 C 37.794 318.919, 39.784 319.363, 48.500 319.771 C 56.033 320.123, 59.395 319.864, 62.130 318.720 L 65.760 317.202 67.980 328.351 C 69.201 334.483, 70.567 340.186, 71.015 341.025 C 71.463 341.864, 83.204 347.038, 97.107 352.522 C 111.010 358.007, 121.623 362.641, 120.692 362.821 C 119.762 363, 119 363.592, 119 364.136 C 119 364.680, 118.213 365.046, 117.250 364.948 C 111.290 364.341, 108.607 366.183, 113.618 367.440 C 115.058 367.802, 115.977 368.357, 115.659 368.674 C 115.342 368.991, 113.255 368.519, 111.021 367.625 C 106.082 365.649, 106 365.646, 106 367.427 C 106 368.213, 104.806 369.794, 103.347 370.941 C 101.888 372.089, 100.876 373.180, 101.097 373.365 C 103.110 375.052, 130.589 386.617, 140.938 390.133 C 150.708 393.453, 151.537 393.525, 156.096 391.454 C 164.205 387.772, 164.487 387.527, 165 383.730 L 165.500 380.025 179 385.839 C 201.612 395.577, 197.440 395.686, 231.078 384.474 L 259.921 374.860 266.210 377.854 C 269.670 379.501, 273.794 381.171, 275.376 381.564 C 277.441 382.078, 277.860 382.499, 276.862 383.057 C 273.506 384.935, 228.951 402.710, 223.195 404.466 C 221.927 404.853, 221.053 405.659, 221.252 406.257 C 221.732 407.695, 258.507 424.772, 262.988 425.638 C 267.038 426.420, 277.159 423.268, 294.167 415.928 C 303.156 412.048, 304.623 411.652, 303.491 413.412 C 302.752 414.560, 301.844 417.163, 301.473 419.195 C 300.904 422.312, 301.189 423.279, 303.296 425.387 C 307.254 429.345, 315.680 431.287, 326.887 430.825 C 335.639 430.463, 337.082 430.109, 343 426.868 C 352.234 421.811, 366.076 413.464, 368.894 411.254 L 371.288 409.376 367.394 405.547 C 357.663 395.980, 340.419 392.438, 327.013 397.251 L 320.527 399.580 307.013 394.445 C 299.581 391.622, 290.418 388.290, 286.650 387.041 L 279.801 384.771 282.650 382.880 C 285.674 380.875, 289.855 379.187, 307.500 372.847 C 315.174 370.089, 319.504 369.046, 321.820 369.396 C 324.223 369.758, 330.993 367.958, 346.320 362.881 L 367.500 355.865 373 357.535 C 376.025 358.454, 381.650 360.591, 385.500 362.284 C 389.350 363.977, 399.250 367.674, 407.500 370.500 C 415.750 373.326, 442.428 382.979, 466.785 391.951 C 504.224 405.742, 514.622 409.120, 511.917 406.614 C 511.687 406.402, 494.850 400.113, 474.500 392.639 C 422.341 373.483, 427.465 375.762, 427.689 371.825 C 427.792 369.996, 429.024 357.475, 430.426 344 C 436.132 289.144, 438.085 268.989, 438.670 258.936 C 439.700 241.232, 436.419 226.266, 429.224 215.839 C 426.357 211.683, 416.748 202.007, 412.457 198.954 C 411.334 198.154, 409.833 195.475, 409.122 193 C 408.412 190.525, 406.227 185.125, 404.268 181 C 399.685 171.353, 388.709 159.781, 377 152.253 C 372.325 149.247, 364.827 143.172, 360.338 138.753 C 354.744 133.247, 351.678 130.910, 350.593 131.326 C 348.642 132.075, 345.009 137.875, 345.004 140.250 C 344.999 142.545, 345.020 142.551, 339.110 138.574 C 335.328 136.029, 332.108 134.840, 326.579 133.948 C 319.457 132.799, 318.761 132.434, 310.319 125.420 C 301.519 118.109, 290.663 111, 288.296 111 C 287.608 111, 286.340 112.077, 285.477 113.394 M 305.500 139.618 C 300 141.537, 289.673 145.088, 282.552 147.509 C 275.431 149.930, 270.256 152.151, 271.052 152.444 C 279.160 155.433, 319.848 166, 323.246 166 C 324.411 166, 328.891 166.952, 333.201 168.115 C 342.503 170.625, 348.625 175.485, 353.698 184.388 C 357.604 191.241, 356.400 191.857, 352.123 185.192 C 350.427 182.548, 348.016 179.424, 346.766 178.250 C 342.433 174.180, 333.817 171.071, 323.936 170.014 C 313.279 168.874, 305.748 167.221, 292 163.006 C 286.775 161.404, 278.393 159.035, 273.374 157.742 L 264.248 155.390 261.624 157.483 C 260.181 158.634, 259 159.858, 259 160.204 C 259 160.551, 268.113 163.866, 279.250 167.573 C 290.387 171.279, 302.905 175.764, 307.066 177.540 C 311.228 179.315, 318.438 181.928, 323.088 183.346 C 332.127 186.103, 336.705 189.460, 339.009 195.021 C 340.164 197.809, 340.539 197.991, 343.880 197.386 C 350.858 196.123, 354.642 193.901, 359.804 188.037 C 367.715 179.049, 366.697 174.421, 356.131 171.350 C 352.375 170.258, 349.183 168.393, 346.127 165.506 C 341.784 161.402, 341.644 161.085, 341.788 155.627 C 341.870 152.525, 342.466 148.997, 343.114 147.787 C 344.168 145.818, 343.857 145.200, 340.153 141.914 C 332.275 134.922, 321.083 134.181, 305.500 139.618 M 372.332 153.277 C 373.648 155.050, 376.441 159.650, 378.538 163.500 C 383.819 173.193, 383.732 177.013, 377.980 187.808 C 375.557 192.355, 372.838 196.742, 371.936 197.558 C 370.443 198.909, 370.150 198.442, 368.636 192.308 C 367.722 188.604, 366.600 185.200, 366.143 184.743 C 365.686 184.286, 363.710 185.868, 361.751 188.258 L 358.190 192.604 359.712 198.052 C 360.810 201.979, 361.374 210.481, 361.733 228.500 C 362.436 263.736, 360.720 272.742, 351.010 284.793 C 348.259 288.207, 346.447 291, 346.983 291 C 347.519 291, 350.945 290.020, 354.595 288.821 C 360.504 286.881, 361.036 286.500, 359.448 285.338 C 357.804 284.136, 358.101 283.575, 363.225 278.203 C 370.005 271.095, 374.514 264.166, 381.031 250.838 C 385.680 241.332, 386 240.181, 386 232.975 C 386 228.739, 386.442 222.942, 386.983 220.092 C 388.010 214.675, 393.003 206.309, 395.845 205.244 C 396.755 204.903, 398.048 203.921, 398.718 203.062 C 400.220 201.137, 400.356 190.822, 398.947 185.747 C 398.320 183.489, 398.260 181.359, 398.796 180.400 C 399.437 179.255, 400.154 181.157, 401.345 187.153 C 402.256 191.744, 403.001 196.963, 403.001 198.750 C 403 202.645, 404.066 202.919, 405.681 199.438 C 407.231 196.098, 405.330 188.602, 400.573 179.303 C 396.541 171.422, 385.995 160.530, 376.219 154.151 L 369.939 150.053 372.332 153.277 M 256 163.515 C 256 165.980, 261.691 168.790, 275.500 173.145 C 282.650 175.400, 289.063 177.695, 289.750 178.245 C 290.722 179.023, 291 191.217, 291 233.103 L 291 286.962 288.477 287.595 C 282.443 289.110, 261.865 285.007, 253.125 280.547 C 250.581 279.249, 247.211 276.828, 245.635 275.169 C 242.111 271.457, 239.558 271.844, 241.251 275.834 C 244.024 282.372, 250.976 286.266, 267.758 290.683 C 275.940 292.837, 280.382 293.323, 295.500 293.718 C 311.201 294.127, 314.841 293.913, 324 292.037 C 343.769 287.989, 351.932 282.591, 355.439 271.250 C 356.101 269.111, 355.873 269.001, 350.817 269.011 C 342.485 269.028, 337.777 270.026, 339.012 271.514 C 340.119 272.848, 349.051 272.810, 352.366 271.458 C 353.988 270.796, 354.092 270.959, 353.159 272.702 C 352.272 274.361, 350.960 274.739, 345.572 274.887 C 340.093 275.038, 338.866 274.758, 337.847 273.127 C 336.709 271.305, 336.382 271.471, 332.417 275.882 C 327.150 281.740, 320.386 285.472, 310.415 288.022 C 302.599 290.021, 290 290.717, 290 289.150 C 290 288.682, 293.978 288.017, 298.839 287.672 C 314.590 286.554, 325.886 281.540, 332.679 272.649 C 335.139 269.430, 336.179 266.629, 337.279 260.261 C 338.060 255.736, 338.556 251.890, 338.381 251.714 C 338.205 251.538, 336.525 251.574, 334.647 251.793 C 331.362 252.177, 331.206 252.387, 330.550 257.346 C 329.804 262.988, 326.896 270.332, 324.212 273.354 C 322.024 275.817, 311.201 280.998, 308.240 280.999 C 306.997 281, 305.230 281.877, 304.312 282.949 C 303.394 284.021, 302.176 284.609, 301.606 284.256 C 301.035 283.904, 298.978 283.356, 297.034 283.041 L 293.500 282.466 293.241 231.233 C 293.084 200.153, 293.347 180, 293.911 180 C 295.633 180, 312.463 186.205, 316.500 188.328 C 318.700 189.485, 323.200 190.690, 326.500 191.007 L 332.500 191.583 328.234 192.541 L 323.968 193.500 326.321 197 C 329.338 201.487, 331 206.382, 331 210.781 C 331 214.354, 330.429 215.054, 318.677 225.890 C 315.646 228.685, 315 229.968, 315 233.190 C 315 242.784, 323.668 249.977, 335.250 249.994 C 338.585 249.999, 339 249.723, 339 247.500 C 339 246.048, 338.425 245, 337.627 245 C 336.872 245, 334.344 242.927, 332.009 240.394 C 328.056 236.105, 327.798 235.482, 328.266 231.332 C 328.920 225.531, 332.135 222, 336.764 222 L 340.180 222 339.521 213.250 C 337.900 191.686, 336.581 189.503, 322.531 185.111 C 317.564 183.558, 311.142 181.092, 308.259 179.632 C 302.775 176.852, 259.979 162, 257.455 162 C 256.655 162, 256 162.682, 256 163.515 M 51.809 188.772 C 50.421 190.273, 47.455 194.023, 45.217 197.107 L 41.148 202.714 43.181 206.058 C 45.136 209.271, 45.259 209.322, 46.357 207.347 C 47.547 205.209, 49.465 205.322, 51.813 207.670 C 52.554 208.412, 53.518 208.798, 53.954 208.528 C 54.846 207.977, 60.474 188.109, 59.881 187.605 C 59.671 187.427, 58.337 187.003, 56.916 186.663 C 54.914 186.184, 53.762 186.660, 51.809 188.772 M 344.500 198.893 L 341.500 199.549 341.638 208.779 C 341.736 215.398, 342.231 218.704, 343.388 220.469 C 345.832 224.200, 345.600 237.401, 343 242.500 C 340.177 248.036, 340.404 249, 344.532 249 C 348.787 249, 354.643 246.684, 357.736 243.778 C 359.813 241.827, 359.992 240.818, 359.901 231.576 C 359.846 226.034, 359.466 217.675, 359.056 213 L 358.310 204.500 358.155 212.168 C 357.998 219.926, 357.398 223, 356.041 223 C 355.631 223, 354.993 219.071, 354.624 214.269 C 354.255 209.467, 353.496 203.842, 352.938 201.769 C 351.858 197.759, 351.008 197.469, 344.500 198.893 M 415 207.718 C 419.515 211.195, 424.608 216.485, 428.172 221.400 C 431.687 226.248, 431.870 225.338, 428.464 219.944 C 424.903 214.302, 419.150 208.129, 415.875 206.435 C 411.546 204.197, 411.161 204.761, 415 207.718 M 38 209.453 C 38 210.659, 40.414 215, 41.084 215 C 41.503 215, 41.173 213.650, 40.350 212 C 39.006 209.307, 38 208.216, 38 209.453 M 413.038 212.595 C 413.017 213.197, 414.781 216.446, 416.959 219.815 C 421.907 227.471, 423.967 231.408, 425.688 236.500 L 427.041 240.500 426.526 235.650 C 426.243 232.983, 424.649 228.258, 422.985 225.150 C 419.787 219.180, 413.101 210.741, 413.038 212.595 M 43 220.059 C 43 220.641, 43.450 220.840, 44 220.500 C 44.550 220.160, 45 219.684, 45 219.441 C 45 219.198, 44.550 219, 44 219 C 43.450 219, 43 219.477, 43 220.059 M 413 225.395 C 413 230.511, 410.298 239.763, 405.441 251.280 C 402.491 258.276, 402 260.575, 402 267.404 C 402 276.765, 399.738 282.528, 394.388 286.797 C 392.311 288.454, 391 290.386, 391 291.789 C 391 293.048, 392.962 299.348, 395.360 305.789 C 401.309 321.769, 402.373 326.813, 401.713 335.890 C 401.091 344.436, 397.786 356.073, 394.777 360.308 C 393.679 361.852, 392.943 363.251, 393.141 363.417 C 393.750 363.928, 412.345 369.993, 412.525 369.739 C 412.618 369.607, 413.466 361.850, 414.409 352.500 C 415.352 343.150, 417.927 318.850, 420.130 298.500 C 424.733 255.978, 425.236 244.051, 422.767 235.980 C 421.034 230.316, 415.523 221, 413.906 221 C 413.408 221, 413 222.978, 413 225.395 M 400.036 225.456 C 398.689 227.080, 399.430 229, 401.404 229 C 403.069 229, 406.208 225.542, 405.336 224.669 C 404.179 223.512, 401.294 223.940, 400.036 225.456 M 59.980 234.588 C 61.895 235.418, 74.495 239.649, 87.980 243.991 C 121.332 254.728, 142.751 261.852, 159.996 267.943 C 167.969 270.759, 173.819 272.419, 172.996 271.631 C 172.173 270.843, 167.225 268.614, 162 266.678 C 151.367 262.737, 58.842 232.978, 57.414 233.039 C 56.911 233.061, 58.066 233.758, 59.980 234.588 M 52.870 235.463 C 52.110 236.223, 53.087 242, 53.976 242 C 54.387 242, 55.020 245.488, 55.381 249.750 C 56.149 258.807, 61.839 290.068, 65.985 308 C 67.575 314.875, 69.627 324.325, 70.546 329 C 71.465 333.675, 72.613 338.248, 73.096 339.161 C 73.580 340.075, 79.493 342.943, 86.238 345.535 C 92.982 348.127, 108.625 354.296, 121 359.242 C 152.863 371.979, 190.072 386.591, 192.897 387.477 C 195.200 388.199, 195.271 388.077, 194.715 384.364 C 193.869 378.720, 185.845 334.744, 179.839 302.835 L 174.631 275.169 167.066 272.508 C 162.905 271.044, 144.425 264.902, 126 258.860 C 107.575 252.817, 84.175 245.142, 74 241.805 C 63.825 238.467, 55.026 235.557, 54.448 235.337 C 53.869 235.118, 53.159 235.174, 52.870 235.463 M 358.343 255.500 C 358.346 259.900, 358.522 261.576, 358.733 259.224 C 358.945 256.872, 358.942 253.272, 358.727 251.224 C 358.512 249.176, 358.339 251.100, 358.343 255.500 M 350 250 C 348.625 250.440, 346.108 250.845, 344.408 250.900 C 341.349 250.999, 341.298 251.088, 339.699 259.207 C 338.809 263.722, 338.176 267.459, 338.291 267.514 C 338.406 267.568, 341.650 267.362, 345.500 267.056 L 352.500 266.500 352.589 257.750 C 352.638 252.938, 352.638 249.045, 352.589 249.100 C 352.540 249.155, 351.375 249.560, 350 250 M 356.157 254.610 C 356.071 256.321, 355.767 259.921, 355.482 262.610 C 355.109 266.123, 355.230 266.937, 355.911 265.500 C 356.493 264.273, 356.887 264.047, 356.930 264.917 C 356.968 265.696, 357.138 266.146, 357.306 265.917 C 357.475 265.688, 357.321 262.350, 356.964 258.500 C 356.607 254.650, 356.244 252.900, 356.157 254.610 M 55.158 270 C 55.158 271.375, 55.385 271.938, 55.662 271.250 C 55.940 270.563, 55.940 269.438, 55.662 268.750 C 55.385 268.063, 55.158 268.625, 55.158 270 M 53.079 273.583 C 53.127 274.748, 53.364 274.985, 53.683 274.188 C 53.972 273.466, 53.936 272.603, 53.604 272.271 C 53.272 271.939, 53.036 272.529, 53.079 273.583 M 102.420 279.145 C 99.919 280.358, 97.490 284.367, 96.694 288.597 C 95.862 293.020, 98.487 304.481, 101.947 311.528 C 107.852 323.555, 121.497 334, 131.303 334 C 139.640 334, 143.620 328.314, 142.762 317.630 C 142.030 308.501, 137.405 299.486, 128.820 290.448 C 118.754 279.851, 109.304 275.804, 102.420 279.145 M 56.079 283.583 C 56.127 284.748, 56.364 284.985, 56.683 284.188 C 56.972 283.466, 56.936 282.603, 56.604 282.271 C 56.272 281.939, 56.036 282.529, 56.079 283.583 M 43.552 288.916 C 42.586 290.479, 44.787 294.814, 47.423 296.542 C 50.613 298.632, 52.935 298.078, 50.634 295.777 C 49.735 294.878, 49 293.634, 49 293.012 C 49 292.391, 48.573 292.146, 48.050 292.469 C 47.528 292.792, 46.629 292.175, 46.052 291.097 C 45.171 289.451, 45.363 289.069, 47.252 288.705 C 49.219 288.327, 49.163 288.255, 46.809 288.136 C 45.329 288.061, 43.863 288.412, 43.552 288.916 M 50.658 290.551 C 50.964 291.348, 51.616 292, 52.107 292 C 53.545 292, 53.133 290.265, 51.551 289.658 C 50.582 289.286, 50.286 289.582, 50.658 290.551 M 234.500 290.195 C 231.414 291.945, 231.215 292.625, 230.488 303.922 C 230.113 309.740, 229.737 315.385, 229.653 316.466 C 229.530 318.054, 230.657 318.761, 235.500 320.136 C 245.656 323.020, 245.095 323.671, 247.997 305.625 L 249.102 298.750 243.801 293.921 C 238.076 288.705, 237.520 288.482, 234.500 290.195 M 111.513 290.979 C 110.654 292.368, 115.057 298.048, 117.815 299.109 C 123.542 301.312, 124.827 298.325, 120.411 293.077 C 117.809 289.985, 112.850 288.815, 111.513 290.979 M 213 297.026 C 205.025 299.098, 197.272 301.052, 195.770 301.367 C 193.801 301.782, 193.209 302.382, 193.647 303.522 C 194 304.442, 193.334 306.080, 192.053 307.444 L 189.853 309.786 193.399 312.491 C 195.893 314.393, 197.142 316.281, 197.604 318.848 C 198.513 323.887, 198.450 323.841, 203.231 322.982 C 205.579 322.561, 211.355 321.683, 216.066 321.031 C 220.777 320.379, 225.143 319.530, 225.769 319.143 C 226.394 318.757, 227.380 314.179, 227.960 308.970 C 228.540 303.762, 229.208 298.038, 229.445 296.250 C 229.725 294.126, 229.463 293.045, 228.687 293.130 C 228.034 293.201, 220.975 294.955, 213 297.026 M 109.413 297.789 C 109.717 299.598, 110.761 302.179, 111.733 303.525 C 114.134 306.848, 121.275 310.224, 127.087 310.782 C 131.476 311.204, 131.833 311.077, 131.357 309.257 C 130.926 307.608, 129.683 307.165, 124.003 306.637 C 115.362 305.834, 114.001 305.291, 113.995 302.643 C 113.992 301.464, 112.836 299.150, 111.425 297.500 L 108.860 294.500 109.413 297.789 M 387.057 298.257 C 387.521 300.041, 389.576 306.225, 391.625 312 C 394.987 321.481, 395.391 323.718, 395.787 335.058 C 396.240 348.071, 395.947 349.483, 390.717 359.500 C 389.808 361.241, 389.874 361.334, 391.227 360.219 C 395.629 356.588, 399.717 338.929, 398.685 328 C 398.019 320.953, 394.566 309.958, 392.140 307.161 C 391.104 305.967, 389.688 302.956, 388.991 300.470 C 387.553 295.331, 385.764 293.285, 387.057 298.257 M 55.813 297.683 C 56.534 297.972, 57.397 297.936, 57.729 297.604 C 58.061 297.272, 57.471 297.036, 56.417 297.079 C 55.252 297.127, 55.015 297.364, 55.813 297.683 M 370.500 302.034 C 365.550 303.658, 357.225 306.159, 352 307.592 C 323.684 315.358, 311.380 319.362, 309.089 321.557 L 306.678 323.867 313.783 331.474 C 321.220 339.438, 324.147 345.129, 325.523 354.302 C 325.912 356.899, 326.532 359.211, 326.901 359.439 C 327.269 359.666, 330.705 358.522, 334.535 356.897 C 347.873 351.237, 363.011 346, 366.035 346 C 367.710 346, 370.844 346.900, 373 348 C 375.156 349.100, 377.395 350, 377.975 350 C 379.592 350, 382.804 344.120, 383.528 339.834 C 384.273 335.423, 386.003 334.663, 385.994 338.750 C 385.984 343.792, 383.973 348.845, 380.971 351.371 C 378.121 353.769, 377.087 356, 378.826 356 C 381.016 356, 384.540 350.323, 386.127 344.239 C 388.126 336.576, 388.525 337.753, 386.917 346.566 C 386.115 350.963, 385.158 353.047, 383.223 354.611 C 380.643 356.696, 380.637 356.735, 382.680 357.829 C 384.336 358.715, 385.065 358.586, 386.336 357.181 C 391.850 351.088, 395.036 333.239, 392.525 322.501 C 390.786 315.058, 386.430 303.406, 384.339 300.602 C 382.842 298.593, 382.797 298.589, 383.335 300.500 C 383.644 301.600, 385.936 308.350, 388.429 315.500 C 393.065 328.800, 393.758 332, 392 332 C 391.450 332, 391 330.899, 391 329.552 C 391 328.206, 389.552 323.144, 387.782 318.302 C 386.012 313.461, 384.662 309.163, 384.782 308.750 C 384.902 308.337, 384.523 308, 383.941 308 C 383.359 308, 383.135 307.591, 383.444 307.090 C 384.168 305.919, 383.017 302.871, 382.071 303.456 C 381.676 303.701, 381.385 302.956, 381.426 301.801 C 381.467 300.647, 381.050 299.563, 380.500 299.392 C 379.950 299.221, 375.450 300.410, 370.500 302.034 M 57.500 302.536 L 54.500 303.910 57.250 303.955 C 58.763 303.980, 60 303.523, 60 302.941 C 60 302.359, 60.450 302.160, 61 302.500 C 61.550 302.840, 62 302.641, 62 302.059 C 62 300.734, 61.265 300.812, 57.500 302.536 M 250.160 311.750 C 247.740 322.619, 247.691 323.006, 248.750 322.985 C 250.924 322.940, 252.161 320.627, 254.032 313.111 C 255.628 306.700, 255.830 304.500, 254.925 303.410 C 254.282 302.634, 253.435 302, 253.043 302 C 252.651 302, 251.354 306.387, 250.160 311.750 M 31.939 306.061 C 28.876 309.124, 29.858 311.235, 35.006 312.658 C 39.192 313.815, 39.346 313.792, 37.250 312.328 C 36.013 311.463, 35 310.171, 35 309.456 C 35 308.014, 40.565 305.861, 43.574 306.139 C 44.633 306.237, 46.625 306.194, 48 306.043 C 49.953 305.830, 49.641 305.605, 46.575 305.014 C 41.851 304.104, 36.603 305.397, 33.852 308.148 C 32.742 309.258, 31.533 309.866, 31.167 309.498 C 30.800 309.131, 31.763 307.743, 33.306 306.415 C 34.849 305.087, 35.636 304, 35.056 304 C 34.475 304, 33.072 304.928, 31.939 306.061 M 49.562 308.331 C 48.171 309.348, 46.584 309.432, 42.815 308.687 C 39.518 308.035, 37.550 308.050, 36.869 308.731 C 35.810 309.790, 36.543 309.942, 44.500 310.313 C 46.917 310.426, 48.731 311.073, 49.083 311.949 C 49.475 312.924, 50.031 312.351, 50.781 310.199 C 52.051 306.556, 52.031 306.526, 49.562 308.331 M 57 307.878 C 57 309.125, 59.568 311.099, 60.273 310.394 C 61.239 309.427, 59.895 307, 58.393 307 C 57.627 307, 57 307.395, 57 307.878 M 258 308.119 C 258 308.665, 259.918 309.961, 262.262 310.998 C 267.439 313.288, 275.200 315.133, 274.433 313.892 C 274.130 313.401, 273.224 313, 272.419 313 C 271.614 313, 268.041 311.678, 264.478 310.063 C 260.915 308.447, 258 307.573, 258 308.119 M 52.509 310.250 C 51.546 312.581, 52.562 315, 54.504 315 C 55.672 315, 55.841 314.555, 55.170 313.250 C 54.675 312.288, 54.037 310.825, 53.752 310 C 53.319 308.749, 53.113 308.790, 52.509 310.250 M 256.100 314.250 C 255.633 315.488, 254.945 318.322, 254.572 320.548 L 253.893 324.596 260.515 329.048 C 264.158 331.497, 267.605 333.372, 268.174 333.215 C 269.577 332.829, 272.106 335.020, 271.461 336.063 C 271.177 336.523, 271.827 337.372, 272.906 337.950 C 275.456 339.315, 276.291 339.280, 275.406 337.848 C 274.510 336.398, 274.761 328.602, 275.901 322.503 C 276.514 319.221, 276.435 317.756, 275.635 317.533 C 275.011 317.359, 270.892 316.043, 266.482 314.608 C 262.072 313.174, 258.123 312, 257.707 312 C 257.291 312, 256.568 313.012, 256.100 314.250 M 41.750 313.706 C 42.987 313.944, 45.013 313.944, 46.250 313.706 C 47.487 313.467, 46.475 313.272, 44 313.272 C 41.525 313.272, 40.513 313.467, 41.750 313.706 M 59 315.583 C 56.808 316.800, 56.746 316.968, 58.500 316.953 C 59.600 316.944, 61.374 316.276, 62.441 315.468 C 64.953 313.569, 62.482 313.651, 59 315.583 M 344.888 315.446 C 344.643 315.691, 338.605 316.869, 331.471 318.065 C 324.337 319.260, 318.355 320.366, 318.179 320.524 C 318.002 320.681, 319.586 323.890, 321.698 327.655 C 323.811 331.420, 326.387 336.413, 327.422 338.750 C 328.457 341.087, 329.348 342.996, 329.402 342.991 C 329.456 342.986, 335.350 341.452, 342.500 339.582 C 356.244 335.989, 361 334.418, 361 333.471 C 361 333.153, 358.863 328.875, 356.250 323.964 C 351.853 315.700, 351.271 315.035, 348.417 315.018 C 346.721 315.008, 345.133 315.201, 344.888 315.446 M 41.500 316.996 C 43.387 317.811, 56.807 318.410, 55.917 317.640 C 55.687 317.441, 51.900 317.021, 47.500 316.706 C 42.656 316.358, 40.289 316.473, 41.500 316.996 M 277.488 327.315 C 277.096 332.547, 277.081 337.323, 277.456 337.929 C 278.119 339.002, 294.222 331.121, 296.504 328.606 C 297.056 327.998, 298.130 327.367, 298.891 327.204 C 300.177 326.929, 309 320.152, 309 319.440 C 309 319.264, 304.046 319.120, 297.992 319.120 C 291.937 319.120, 285.007 318.824, 282.592 318.462 L 278.201 317.803 277.488 327.315 M 229 320.962 C 229 321.704, 239.060 324.273, 239.651 323.682 C 239.845 323.488, 237.528 322.641, 234.502 321.799 C 231.476 320.957, 229 320.580, 229 320.962 M 349.048 321.138 C 349.012 322.375, 346.537 323.377, 338.957 325.223 C 333.434 326.569, 328.714 327.346, 328.468 326.949 C 328.223 326.552, 329.010 325.969, 330.218 325.653 C 332.998 324.926, 332.207 324.101, 328.293 323.646 L 325.254 323.292 328.877 330.129 C 330.873 333.895, 333.174 336.972, 334 336.980 C 335.631 336.996, 354.171 332.162, 354.768 331.566 C 354.969 331.365, 353.775 328.568, 352.115 325.350 C 350.455 322.133, 349.075 320.237, 349.048 321.138 M 344.813 321.683 C 345.534 321.972, 346.397 321.936, 346.729 321.604 C 347.061 321.272, 346.471 321.036, 345.417 321.079 C 344.252 321.127, 344.015 321.364, 344.813 321.683 M 333.328 323.455 C 333.746 324.676, 338.045 324.265, 339.498 322.866 C 340.142 322.245, 339.162 321.994, 336.733 322.157 C 334.650 322.298, 333.130 322.877, 333.328 323.455 M 341.500 325.626 C 338.750 326.423, 335.385 327.310, 334.023 327.598 C 332.660 327.886, 331.358 328.308, 331.130 328.537 C 330.512 329.154, 333.086 332, 334.262 332 C 334.822 332, 335.877 332.788, 336.608 333.750 C 337.339 334.712, 337.951 335, 337.968 334.389 C 337.987 333.736, 339.135 333.466, 340.750 333.733 C 343.353 334.165, 343.315 334.086, 340.053 332.255 C 338.158 331.190, 336.451 329.852, 336.260 329.280 C 335.717 327.650, 341.827 327.108, 342.450 328.731 C 342.793 329.624, 342.544 329.844, 341.739 329.360 C 340.809 328.802, 340.819 329.011, 341.781 330.197 C 342.485 331.067, 344.205 331.997, 345.603 332.264 C 347.635 332.653, 348.362 332.224, 349.230 330.125 C 350.102 328.015, 350.396 327.844, 350.731 329.250 C 350.959 330.212, 351.564 331, 352.073 331 C 353.376 331, 353.176 329.817, 351.500 327.603 C 350.710 326.559, 350.301 325.322, 350.591 324.853 C 351.357 323.613, 347.247 323.963, 341.500 325.626 M 302.500 327.578 C 299.687 329.709, 280.043 340.722, 270.536 345.499 C 260.950 350.315, 259.759 351.851, 262.617 355.714 C 264.636 358.443, 276.901 368.941, 278.116 368.980 C 278.454 368.991, 278.381 367.087, 277.953 364.750 C 277.524 362.413, 277.260 360.412, 277.366 360.304 C 277.917 359.744, 279.984 362.026, 282.978 366.500 C 284.818 369.250, 286.447 371.659, 286.598 371.852 C 286.748 372.046, 293.088 369.728, 300.686 366.702 C 308.284 363.676, 316.472 360.671, 318.882 360.026 L 323.264 358.852 322.743 353.103 C 322.456 349.942, 321.210 345.372, 319.973 342.948 C 317.929 338.940, 306.506 325.956, 305.091 326.032 C 304.766 326.049, 303.600 326.745, 302.500 327.578 M 346.607 327.174 C 346.893 327.636, 346.423 328.284, 345.563 328.614 C 344.704 328.944, 344 329.602, 344 330.076 C 344 331.162, 347.252 330.008, 348.235 328.573 C 349.344 326.953, 349.153 326.333, 347.544 326.333 C 346.743 326.333, 346.322 326.712, 346.607 327.174 M 209.641 328.676 C 206.170 329.088, 207.527 329.718, 223.141 334.947 C 232.689 338.145, 244.537 342.632, 249.472 344.918 L 258.444 349.076 261.728 347.307 C 263.535 346.334, 264.863 345.090, 264.681 344.542 C 264.142 342.926, 250.880 333.143, 246.029 330.783 C 242.165 328.903, 239.650 328.581, 227.529 328.413 C 219.813 328.305, 211.764 328.424, 209.641 328.676 M 420.195 330.500 C 420.215 332.150, 420.439 332.704, 420.693 331.731 C 420.947 330.758, 420.930 329.408, 420.656 328.731 C 420.382 328.054, 420.175 328.850, 420.195 330.500 M 254 329.350 C 254 329.581, 255.180 330.543, 256.623 331.489 C 258.066 332.434, 258.941 332.713, 258.567 332.109 C 257.854 330.955, 254 328.626, 254 329.350 M 258 329.378 C 258 329.585, 258.788 330.373, 259.750 331.128 C 261.336 332.371, 261.371 332.336, 260.128 330.750 C 258.821 329.084, 258 328.555, 258 329.378 M 188.500 332 C 187.239 332.542, 187.055 332.859, 188 332.859 C 188.825 332.859, 190.400 332.473, 191.500 332 C 192.761 331.458, 192.945 331.141, 192 331.141 C 191.175 331.141, 189.600 331.527, 188.500 332 M 193.261 333.247 C 188.884 335.127, 188.125 335.826, 188.644 337.498 C 188.985 338.599, 189.630 339.642, 190.076 339.815 C 190.522 339.988, 190.638 340.779, 190.334 341.572 C 190.029 342.366, 190.058 344.496, 190.398 346.306 C 190.959 349.296, 191.586 349.790, 197.258 351.706 C 200.691 352.866, 212.046 357.046, 222.490 360.994 L 241.480 368.172 248.929 367.064 C 253.025 366.455, 256.484 365.850, 256.614 365.720 C 256.744 365.590, 256.960 362.112, 257.093 357.992 L 257.336 350.500 248.918 346.758 C 238.141 341.967, 208.425 332.126, 202.808 331.488 C 199.713 331.136, 197.025 331.632, 193.261 333.247 M 262 332.360 C 262 333.108, 271.108 340.225, 271.528 339.805 C 271.758 339.575, 269.708 337.716, 266.973 335.674 C 264.238 333.632, 262 332.141, 262 332.360 M 419.272 339 C 419.272 341.475, 419.467 342.488, 419.706 341.250 C 419.944 340.012, 419.944 337.988, 419.706 336.750 C 419.467 335.512, 419.272 336.525, 419.272 339 M 0 342.970 C 0 344.657, 27.191 356.781, 82 379.531 C 126.179 397.869, 147.800 407.066, 166.500 415.475 C 174.750 419.185, 188.475 425.148, 197 428.727 C 221.936 439.194, 224.642 440.354, 242.500 448.229 C 258.790 455.412, 263.176 457.084, 269.250 458.429 C 272.140 459.069, 272.969 461.414, 270.623 462.314 C 268.062 463.297, 260.986 460.999, 244.713 453.900 C 235.796 450.009, 216.125 441.520, 201 435.035 C 185.875 428.550, 169.900 421.576, 165.500 419.537 C 140.205 407.815, 103.703 392.179, 37.384 364.658 C 27.419 360.523, 14.932 355.114, 9.634 352.638 C 2.420 349.267, -0 348.512, -0 349.633 C -0 351.537, 8.783 355.595, 51 373.196 C 96.189 392.036, 126.863 405.178, 155 417.753 C 184.465 430.922, 250.834 459.581, 257.500 462.014 C 265.742 465.023, 268.801 465.361, 271.541 463.565 C 274.198 461.824, 274.846 457.913, 272.750 456.258 C 272.063 455.715, 268.999 455.026, 265.942 454.728 C 262.073 454.349, 255.888 452.170, 245.590 447.557 C 237.453 443.912, 220.380 436.507, 207.648 431.101 C 194.917 425.695, 173.700 416.534, 160.500 410.744 C 147.300 404.954, 121.200 393.860, 102.500 386.091 C 83.800 378.321, 65.575 370.744, 62 369.253 L 55.500 366.542 60 365.884 C 62.475 365.521, 66.394 364.712, 68.710 364.085 C 72.386 363.089, 73.001 362.513, 73.559 359.537 C 74.447 354.802, 73.529 353.878, 68.163 354.112 C 65.598 354.224, 62.525 354.001, 61.334 353.617 C 60.130 353.229, 58.883 353.381, 58.525 353.959 C 58.171 354.532, 55.473 355, 52.529 355 L 47.176 355 46.500 351 L 45.824 347 36.412 347 L 27 347 27 350.500 C 27 352.425, 26.823 354, 26.607 354 C 26.391 354, 20.493 351.300, 13.500 348 C -0.427 341.427, 0 341.587, 0 342.970 M 418.195 347.500 C 418.215 349.150, 418.439 349.704, 418.693 348.731 C 418.947 347.758, 418.930 346.408, 418.656 345.731 C 418.382 345.054, 418.175 345.850, 418.195 347.500 M 345.467 354.566 C 336.135 358.067, 327.712 360.947, 326.750 360.966 C 325.788 360.985, 325 361.675, 325 362.500 C 325 363.325, 325.168 364, 325.374 364 C 325.580 364, 329.655 362.425, 334.430 360.500 C 343.500 356.844, 345.527 356.338, 344.507 357.989 C 344.157 358.555, 344.557 358.724, 345.442 358.384 C 346.293 358.057, 346.710 357.339, 346.369 356.788 C 345.980 356.159, 346.587 356.052, 348 356.500 C 349.521 356.983, 350.031 356.859, 349.573 356.119 C 349.136 355.412, 349.498 355.254, 350.593 355.674 C 351.595 356.058, 352.743 355.704, 353.398 354.809 C 354.889 352.769, 362.854 348.772, 364.325 349.325 C 365.440 349.745, 364.765 350.119, 360.357 351.524 C 359.453 351.811, 358.941 352.274, 359.218 352.552 C 359.496 352.829, 360.959 352.586, 362.471 352.011 C 364.347 351.298, 366.373 351.287, 368.859 351.978 C 376.752 354.170, 379.875 352.542, 373.250 349.689 C 367.305 347.128, 363.519 347.793, 345.467 354.566 M 417.158 356 C 417.158 357.375, 417.385 357.938, 417.662 357.250 C 417.940 356.563, 417.940 355.438, 417.662 354.750 C 417.385 354.063, 417.158 354.625, 417.158 356 M 314.688 363.183 C 311.491 364.297, 309.066 365.399, 309.299 365.632 C 309.532 365.865, 310.798 365.659, 312.111 365.174 C 316.817 363.438, 320.189 362.885, 319.525 363.960 C 319.171 364.532, 319.659 365, 320.608 365 C 321.557 365, 322.037 364.704, 321.675 364.342 C 321.313 363.980, 321.519 363.080, 322.131 362.342 C 323.677 360.479, 321.857 360.685, 314.688 363.183 M 123.733 364.124 C 124.412 364.808, 125.219 365.115, 125.526 364.807 C 125.834 364.499, 125.279 363.940, 124.293 363.564 C 122.868 363.022, 122.753 363.136, 123.733 364.124 M 121.500 366 C 124.249 367.181, 125.828 367.181, 124 366 C 123.175 365.467, 121.825 365.055, 121 365.086 C 120.011 365.122, 120.181 365.433, 121.500 366 M 128 366 C 128.825 366.533, 129.950 366.969, 130.500 366.969 C 131.050 366.969, 130.825 366.533, 130 366 C 129.175 365.467, 128.050 365.031, 127.500 365.031 C 126.950 365.031, 127.175 365.467, 128 366 M 299.480 369.425 C 290.339 373.911, 291.606 373.997, 301.115 369.536 C 305.177 367.631, 308.041 366.056, 307.480 366.036 C 306.919 366.016, 303.319 367.541, 299.480 369.425 M 134 368.500 C 135.375 369.286, 136.950 369.929, 137.500 369.929 C 138.050 369.929, 137.375 369.286, 136 368.500 C 134.625 367.714, 133.050 367.071, 132.500 367.071 C 131.950 367.071, 132.625 367.714, 134 368.500 M 246 369.027 C 242.975 369.448, 237.350 370.766, 233.500 371.956 C 215.795 377.427, 204.603 381.367, 205.714 381.738 C 206.651 382.050, 206.660 382.572, 205.752 384.026 C 203.783 387.178, 205.745 387.494, 212.274 385.077 C 215.698 383.809, 227.372 379.786, 238.215 376.136 C 249.058 372.486, 257.945 369.163, 257.965 368.750 C 258.006 367.865, 253.630 367.966, 246 369.027 M 108 369.354 C 108 370.090, 118.204 373.130, 118.771 372.562 C 119.008 372.325, 117.328 371.627, 115.038 371.010 C 112.748 370.394, 110.228 369.641, 109.437 369.338 C 108.647 369.034, 108 369.042, 108 369.354 M 124 369.831 C 124.825 370.341, 126.625 371.059, 128 371.427 C 129.737 371.892, 130.042 371.813, 129 371.169 C 128.175 370.659, 126.375 369.941, 125 369.573 C 123.263 369.108, 122.958 369.187, 124 369.831 M 142.504 371.853 C 144.706 372.874, 147.631 374, 149.004 374.356 C 150.377 374.712, 149.698 374.168, 147.496 373.147 C 145.294 372.126, 142.369 371, 140.996 370.644 C 139.623 370.288, 140.302 370.832, 142.504 371.853 M 128 373.831 C 128.825 374.341, 130.625 375.059, 132 375.427 C 133.737 375.892, 134.042 375.813, 133 375.169 C 132.175 374.659, 130.375 373.941, 129 373.573 C 127.263 373.108, 126.958 373.187, 128 373.831 M 116.507 375.989 C 116.157 376.555, 116.558 376.723, 117.448 376.382 C 119.180 375.717, 119.497 375, 118.059 375 C 117.541 375, 116.843 375.445, 116.507 375.989 M 139.998 378.376 C 141.373 379.179, 142.685 379.648, 142.915 379.418 C 143.536 378.797, 142.785 378.324, 140 377.583 L 137.500 376.917 139.998 378.376 M 157.174 378.723 C 155.687 379.002, 155.040 379.663, 155.382 380.553 C 155.676 381.320, 155.148 382.395, 154.208 382.943 C 152.700 383.823, 152.756 383.943, 154.691 383.970 C 155.896 383.986, 157.160 383.550, 157.500 383 C 157.840 382.450, 159.024 382, 160.132 382 C 161.475 382, 162.039 381.444, 161.823 380.333 C 161.456 378.437, 160.488 378.102, 157.174 378.723 M 277.500 379.536 C 279.150 380.292, 281.400 380.896, 282.500 380.879 C 283.798 380.859, 283.271 380.375, 281 379.500 C 276.418 377.735, 273.630 377.764, 277.500 379.536 M 127 379.383 C 127 379.594, 127.901 380.002, 129.001 380.290 C 130.102 380.578, 130.751 380.405, 130.442 379.907 C 129.904 379.036, 127 378.594, 127 379.383 M 138 381 C 138.825 381.533, 139.950 381.969, 140.500 381.969 C 141.050 381.969, 140.825 381.533, 140 381 C 139.175 380.467, 138.050 380.031, 137.500 380.031 C 136.950 380.031, 137.175 380.467, 138 381 M 197.359 382.494 C 197.712 383.412, 198 385.252, 198 386.582 C 198 388.451, 198.532 389, 200.343 389 C 202.491 389, 202.635 388.689, 202.079 385.250 C 201.599 382.280, 200.979 381.430, 199.096 381.162 C 197.222 380.896, 196.854 381.178, 197.359 382.494 M 137.500 383.919 C 143.627 386.747, 147.179 387.307, 141.500 384.550 C 138.750 383.215, 135.825 382.112, 135 382.098 C 134.175 382.084, 135.300 382.904, 137.500 383.919 M 203.079 385.583 C 203.127 386.748, 203.364 386.985, 203.683 386.188 C 203.972 385.466, 203.936 384.603, 203.604 384.271 C 203.272 383.939, 203.036 384.529, 203.079 385.583 M 152.386 387.196 C 153.384 387.755, 154.574 387.825, 155.045 387.354 C 155.516 386.882, 154.707 386.430, 153.239 386.343 C 150.952 386.207, 150.833 386.327, 152.386 387.196 M 267 389.623 C 250.416 396.370, 248.497 397.171, 248.189 397.478 C 248.018 397.649, 249.898 398.559, 252.366 399.502 L 256.853 401.215 269.676 396.178 C 276.729 393.407, 283.834 390.811, 285.464 390.408 L 288.427 389.676 284.964 388.496 C 277.486 385.947, 275.771 386.055, 267 389.623 M 151 389 C 151.825 389.533, 152.950 389.969, 153.500 389.969 C 154.050 389.969, 153.825 389.533, 153 389 C 152.175 388.467, 151.050 388.031, 150.500 388.031 C 149.950 388.031, 150.175 388.467, 151 389 M 271.500 388.932 C 269.926 389.554, 270.391 389.810, 273.681 390.131 C 276.978 390.453, 277.640 390.271, 276.809 389.270 C 275.629 387.849, 274.431 387.772, 271.500 388.932 M 289 390.934 C 289 391.371, 286.863 392.507, 284.250 393.460 C 281.637 394.412, 277.592 396.048, 275.261 397.095 C 270.451 399.256, 269.625 399.415, 270.493 398.011 C 270.843 397.445, 270.443 397.276, 269.558 397.616 C 268.707 397.943, 268.240 398.580, 268.520 399.033 C 269.183 400.105, 265.696 401.204, 263.862 400.501 C 263.081 400.201, 261.556 400.666, 260.471 401.533 C 258.551 403.070, 258.556 403.083, 260.684 402.055 C 263.383 400.751, 264 400.734, 264 401.961 C 264 402.490, 262.200 403.408, 260 404 C 255.646 405.172, 254.470 406.526, 258.470 405.761 C 259.828 405.501, 260.734 405.622, 260.482 406.028 C 260.231 406.435, 261.311 407.301, 262.883 407.952 C 265.198 408.910, 266.450 408.839, 269.475 407.575 C 271.529 406.717, 274.400 406.243, 275.855 406.523 C 278.052 406.945, 278.161 406.877, 276.500 406.123 L 274.500 405.215 276.500 404.498 C 277.600 404.105, 282.934 402.016, 288.354 399.857 C 294.685 397.335, 298.952 396.167, 300.288 396.591 C 302.260 397.217, 302.224 397.327, 299.601 398.701 C 298.080 399.498, 296.173 399.897, 295.365 399.587 C 294.557 399.277, 294.140 399.417, 294.437 399.898 C 295.188 401.113, 293.064 402.604, 289.500 403.363 L 286.500 404.002 290 402.043 C 294.104 399.745, 293.468 399.406, 288.784 401.394 C 286.978 402.161, 284.204 403.303, 282.621 403.932 C 281.037 404.561, 280.014 405.347, 280.347 405.680 C 280.679 406.013, 281.622 405.728, 282.442 405.048 C 283.262 404.368, 284.510 404.004, 285.216 404.239 C 285.922 404.475, 283.879 405.649, 280.676 406.847 C 277.473 408.046, 274.436 408.769, 273.926 408.454 C 273.417 408.140, 273 408.473, 273 409.196 C 273 409.919, 271.444 410.998, 269.541 411.593 C 267.639 412.189, 266.315 412.299, 266.600 411.838 C 266.885 411.377, 266.529 411.033, 265.809 411.074 C 263.913 411.182, 256.263 414.838, 257.750 414.926 C 258.438 414.967, 259.113 414.933, 259.250 414.852 C 259.387 414.771, 261.413 415.680, 263.750 416.872 C 266.087 418.065, 268 418.582, 268 418.020 C 268 417.459, 268.594 417, 269.321 417 C 270.047 417, 274.884 415.163, 280.071 412.919 C 285.257 410.674, 289.950 408.740, 290.500 408.621 C 291.050 408.502, 296.304 406.514, 302.175 404.202 C 308.046 401.891, 313.446 399.979, 314.175 399.953 C 314.904 399.928, 310.775 398.086, 305 395.860 C 291.973 390.839, 289 389.924, 289 390.934 M 263.500 392.464 C 259.556 394.270, 260.448 394.301, 266 392.552 C 268.475 391.772, 269.600 391.124, 268.500 391.112 C 267.400 391.100, 265.150 391.708, 263.500 392.464 M 285.500 394.419 C 274.934 398.338, 260.837 404.966, 263.027 404.986 C 263.868 404.994, 265.583 404.280, 266.840 403.400 C 268.096 402.519, 269.981 402.023, 271.028 402.297 C 272.075 402.571, 272.835 402.372, 272.716 401.856 C 272.597 401.339, 276.956 399.142, 282.402 396.973 C 291.688 393.274, 294.575 391.869, 292.417 392.097 C 291.913 392.150, 288.800 393.195, 285.500 394.419 M 264.500 395 C 264.840 395.550, 265.965 396, 267 396 C 268.035 396, 269.160 395.550, 269.500 395 C 269.862 394.415, 268.824 394, 267 394 C 265.176 394, 264.138 394.415, 264.500 395 M 330 398.379 C 318.193 401.644, 305.465 411.221, 306.187 416.297 C 306.693 419.859, 313.141 422.341, 323.132 422.820 C 333.635 423.323, 337.630 422.156, 345 416.433 C 348.025 414.084, 353.069 410.957, 356.208 409.484 C 364.254 405.709, 364.751 404.790, 360.149 402.204 C 351.685 397.447, 339.131 395.854, 330 398.379 M 243.750 399.213 C 242.238 399.738, 241 400.606, 241 401.142 C 241 401.679, 240.632 401.891, 240.183 401.613 C 239.490 401.185, 231.089 403.578, 230.214 404.452 C 229.794 404.873, 239.597 408, 241.336 408 C 242.139 408, 244.754 409.120, 247.148 410.488 C 252.251 413.405, 256.389 413.651, 261.073 411.314 L 264.453 409.627 260.977 408.200 C 256.954 406.548, 255.096 406.482, 249.250 407.785 C 246.912 408.305, 245 408.378, 245 407.945 C 245 407.513, 246.350 406.862, 248 406.500 C 251.966 405.629, 251.772 404.881, 246.985 402.587 C 244.789 401.535, 243.177 400.490, 243.403 400.263 C 243.629 400.037, 245.203 400.571, 246.900 401.448 C 252.144 404.160, 254.423 404.760, 256.500 403.975 C 258.395 403.260, 258.368 403.166, 256 402.197 C 254.625 401.634, 251.925 400.518, 250 399.717 C 247.479 398.667, 245.731 398.527, 243.750 399.213 M 256.269 398.693 C 257.242 398.947, 258.592 398.930, 259.269 398.656 C 259.946 398.382, 259.150 398.175, 257.500 398.195 C 255.850 398.215, 255.296 398.439, 256.269 398.693 M 308.106 405.259 C 302.071 408.981, 268.732 422.050, 266.819 421.443 C 265.819 421.125, 264.027 421.174, 262.837 421.552 C 260.892 422.169, 260.845 422.334, 262.375 423.190 C 264.869 424.585, 268.789 423.443, 285.769 416.372 C 302.691 409.326, 310.538 405.557, 311.488 404.019 C 312.298 402.710, 312.155 402.762, 308.106 405.259 M 301.441 406.555 C 299.611 408.022, 299.643 408.042, 302 406.920 C 305.061 405.462, 305.628 405, 304.358 405 C 303.821 405, 302.509 405.700, 301.441 406.555 M 225.083 406.407 C 225.313 406.631, 233.009 410.244, 242.186 414.436 C 258.541 421.907, 258.937 422.029, 262.186 420.611 C 264.762 419.486, 265.055 419.119, 263.500 418.966 C 262.400 418.858, 260.802 418.835, 259.948 418.914 C 259.095 418.994, 255.357 417.474, 251.641 415.537 C 242.164 410.598, 222.430 403.813, 225.083 406.407" stroke="none" fill="red" fill-rule="evenodd"/>
</svg>